# xmcd
#
# Track frame offsets: 
#        150
#        7970
#        22242
#        30207
#        41787
#        54365
#        65065
#        75985
#        90972
#        103212
#        119270
#        132880
#        147177
#        159765
#        171955
#        185680
#        198805
#        211210
#        224517
#        237075
#        250187
#
# Disc length: 3586 seconds
#
# Revision: 6
# Processed by: cddbd v1.5.2PL0 Copyright (c) Steve Scherf et al.
# Submitted via: ExactAudioCopyFreeDBPlugin 1.0
#
DISCID=160e0015
DTITLE=Various Artist - The Scepter Records Story [Capricorn box set]
DYEAR=1992
DGENRE=Rhythm and Blues
TTITLE0=Roy Head - Just a Little Bit
TTITLE1=B.J. Thomas and The Triumphs - I'm So Lonesome I Could Cry
TTITLE2=Chuck Jackson - The Silencer (previously unreleased in USA)
TTITLE3=Maxine Brown - Baby Cakes (previously unreleased in USA)
TTITLE4=B.J. Thomas - Mama
TTITLE5=Chuck Jackson and Maxine Brown - Daddy's Home
TTITLE6=The Esquires - Get On Up
TTITLE7=Dionne Warwick - I Say a Little Prayer
TTITLE8=The Esquires - And Get Away
TTITLE9=Dionne Warwick - Theme from "Valley of the Dolls"
TTITLE10=B.J. Thomas - The Eyes of a New York Woman
TTITLE11=Fred Hughes - Send My Baby Back
TTITLE12=B.J. Thomas - Hooked on a Feeling
TTITLE13=The Joe Jeffrey Group - My Pledge of Love
TTITLE14=B.J. Thomas - Raindrops Keep Falling on My Head
TTITLE15=Dionne Warwick - I'll Never Fall in Love Again
TTITLE16=B.J. Thomas - Everybody's Out of Town
TTITLE17=B.J. Thomas - I Just Can't Help Believing
TTITLE18=The Buoys - Timothy
TTITLE19=B.J. Thomas - No Love at All
TTITLE20=B.J. Thomas - Rock and Roll Lullaby
EXTD=YEAR: 1992 ID3G:  17
EXTT0=
EXTT1=
EXTT2=
EXTT3=
EXTT4=
EXTT5=
EXTT6=
EXTT7=
EXTT8=
EXTT9=
EXTT10=
EXTT11=
EXTT12=
EXTT13=
EXTT14=
EXTT15=
EXTT16=
EXTT17=
EXTT18=
EXTT19=
EXTT20=
PLAYORDER=
